<svg id="Layer_1" data-name="Layer 1" xmlns="http://www.w3.org/2000/svg" viewBox="0 0 296.39 125"><title>site-logo-2</title><path d="M351.29,378.71v18.11a59.8,59.8,0,0,1-7.32.92c-19.49.09-39,.06-58.49,0.11a49.13,49.13,0,0,0-7,.45c-13.87,2-17.07,10.53-13.53,23.28,0.82,2.95,4.43,5.89,7.47,7.24,3.65,1.63,8.06,2.07,12.15,2.12,20.33,0.26,40.66.25,61,.24a31.93,31.93,0,0,0,7.89-1c9.06-2.34,12.72-7.15,12.71-16.5,0-16.31-.12-32.63-0.19-48.94-0.06-13.75-5.54-19.58-19.38-19.7-24.48-.21-49-0.09-73.45-0.09q-65.25,0-130.49.06a34.64,34.64,0,0,0-7.4.83c-10.24,2.27-14.47,7.72-13.76,17.49,0.61,8.46,6.4,14.19,16,14.61,13.31,0.58,26.67.08,40,.78,8.74,0.46,17.7,1.22,26.05,3.6,15,4.26,22.5,15.74,22.92,31.38,0.6,22.23-13.6,33.8-31.36,34.91-29.69,1.85-59.54,1.27-89.32,1.68a6.64,6.64,0,0,1-1.77-.66c0-4.86,0-9.82,0-14.78,0-3.54,2.37-3.64,5.09-3.64,22.83,0,45.66.12,68.48-.12a45.76,45.76,0,0,0,14.09-2.35c5.94-2,8.53-7,8.66-13.27,0.14-6.89-2-12.77-8.88-15.24a43.05,43.05,0,0,0-13.17-2.29c-11.65-.32-23.37.49-35-0.35-9.51-.69-19.26-2.06-28.26-5-12.84-4.27-18.81-14.75-19.54-28-0.81-14.86,3.8-27.39,18.48-33.19a70.33,70.33,0,0,1,24.63-5.16c56.49-.49,113-0.34,169.47-0.39,14.47,0,28.94-.13,43.41.07a51.39,51.39,0,0,1,24.82,6.6c10.66,6,15.36,15.23,15.39,27.12,0.06,17.79-.32,35.59.08,53.37,0.5,22.53-12.62,33-31,36A137.38,137.38,0,0,1,341,450.34q-28.24.43-56.48,0.38c-10.91,0-21.52-1.89-31.39-6.85-8.77-4.41-14-11.71-14.27-21.34-0.26-8.17-.08-16.79,2.26-24.49,3.19-10.51,12.95-14.79,22.87-17.29a81.94,81.94,0,0,1,18.73-2.45c20.63-.28,41.26-0.09,61.9,0C346.7,378.28,348.83,378.54,351.29,378.71Z" transform="translate(-95.48 -325.73)"/></svg>